<?xml version="1.0" encoding="iso-8859-1"?>
<!-- Generator: Adobe Illustrator 19.0.0, SVG Export Plug-In . SVG Version: 6.00 Build 0)  -->
<svg version="1.1" id="Layer_1" xmlns="http://www.w3.org/2000/svg" xmlns:xlink="http://www.w3.org/1999/xlink" x="0px" y="0px"
	 viewBox="0 0 503.689 503.689" style="enable-background:new 0 0 503.689 503.689;" xml:space="preserve">
<g transform="translate(1 1)">
	<path style="fill:#AE938D;" d="M185.88,429.933l13.653,68.267H3.267l8.533-34.133c8.533-25.6,34.133-51.2,170.667-51.2
		L185.88,429.933z M489.667,464.067L498.2,498.2H301.933l13.653-68.267L319,412.867
		C438.467,412.867,481.987,440.173,489.667,464.067z"/>
	<polygon style="fill:#F2EDDA;" points="315.587,429.933 301.933,498.2 199.533,498.2 185.88,429.933 185.88,429.933 
		314.733,429.933 	"/>
	<path style="fill:#FFD0A1;" d="M222.573,376.173c-8.533-1.707-15.36-4.267-22.187-7.68l-0.853,1.707
		c0,25.6-17.067,42.667-17.067,42.667l3.413,17.067l0,0h128.853h0.853L319,412.867l0,0c0,0-17.067-17.067-17.067-42.667
		l-0.853-1.707c-6.827,3.413-13.653,5.973-22.187,7.68c8.533-1.707,15.36-4.267,22.187-7.68c24.747-11.947,36.693-30.72,43.52-40.96
		c17.067-25.6,34.133-102.4,34.133-102.4c9.387,0,17.067-7.68,17.067-17.067v-34.133c0-9.387-7.68-17.067-17.067-17.067v-34.133
		h-25.6c0,0-59.733,0-59.733-68.267c0,0,0-27.307,8.533-44.373l0,0c-14.507-4.267-31.573-6.827-51.2-6.827
		c-28.16,0-50.347,4.267-69.12,11.947l0.853,0.853C191,33.134,191,54.467,191,54.467c0,68.267-68.267,102.4-68.267,102.4
		c-9.387,0-17.067,7.68-17.067,17.067v34.133c0,9.387,7.68,17.067,17.067,17.067c0,0,17.067,76.8,34.133,102.4
		c6.827,10.24,19.627,29.013,43.52,40.96C207.213,371.053,214.04,373.613,222.573,376.173z"/>
	<circle style="fill:#AE938D;" cx="250.733" cy="429.933" r="17.067"/>
	<path style="fill:#F2EDDA;" d="M327.533,191v8.533c0,14.507-11.093,25.6-25.6,25.6h-17.067c-14.507,0-25.6-11.093-25.6-25.6V191
		c0-9.387,7.68-17.067,17.067-17.067h34.133C319.853,173.933,327.533,181.613,327.533,191z M242.2,191v8.533
		c0,14.507-11.093,25.6-25.6,25.6h-17.067c-14.507,0-25.6-11.093-25.6-25.6V191c0-9.387,7.68-17.067,17.067-17.067h34.133
		C234.52,173.933,242.2,181.613,242.2,191z"/>
	<path style="fill:#ECF4F7;" d="M182.467,16.067C191,33.133,191,54.467,191,54.467c0,68.267-68.267,102.4-68.267,102.4
		s-17.067-8.533-17.067-34.133c0,0,0-77.653,75.947-107.52L182.467,16.067z M378.733,105.667v17.067h-25.6
		c0,0-59.733,0-59.733-68.267c0,0,0-27.307,8.533-44.373l0,0C378.733,33.133,378.733,105.667,378.733,105.667z"/>
</g>
<path style="fill:#51565F;" d="M499.2,503.467c-1.707,0-3.413-1.707-4.267-3.413L486.4,465.92
	c-3.413-11.093-26.453-47.787-162.987-47.787l-16.213,81.92c-0.853,2.56-2.56,3.413-5.12,3.413c-2.56-0.853-3.413-2.56-3.413-5.12
	l17.067-85.333c0-1.707,2.56-3.413,4.267-3.413c0.853,0,1.707,0,2.56,0c139.093,0,167.253,37.547,172.373,53.76l8.533,34.133
	c0.853,2.56-0.853,4.267-3.413,5.12C500.053,503.467,499.2,503.467,499.2,503.467z M4.267,503.467H3.413
	c-2.56-0.853-3.413-2.56-3.413-5.12l8.533-34.133c9.387-28.16,36.693-54.613,174.933-54.613c1.707,0,3.413,1.707,4.267,3.413
	l17.067,85.333c0.853,2.56-0.853,4.267-3.413,5.12c-2.56,0.853-4.267-0.853-5.12-3.413l-16.213-81.92
	c-129.707,0-155.307,24.747-162.987,48.64l-8.533,34.133C7.68,501.76,5.973,503.467,4.267,503.467z M251.733,503.467
	c-2.56,0-4.267-1.707-4.267-4.267v-46.933c-9.387-1.707-17.067-10.24-17.067-21.333c0-11.947,9.387-21.333,21.333-21.333
	c11.947,0,21.333,9.387,21.333,21.333c0,10.24-7.68,18.773-17.067,21.333V499.2C256,501.76,254.293,503.467,251.733,503.467z
	 M251.733,418.133c-6.827,0-12.8,5.973-12.8,12.8s5.973,12.8,12.8,12.8c6.827,0,12.8-5.973,12.8-12.8
	S258.56,418.133,251.733,418.133z M251.733,384c-62.293,0-87.04-37.547-97.28-52.907c-15.36-23.04-30.72-86.187-34.133-100.693
	c-10.24-1.707-17.92-10.24-17.92-21.333v-34.133c0-11.093,9.387-20.48,20.48-21.333c7.68-4.267,64.853-37.547,64.853-98.133
	c0-2.56,1.707-4.267,4.267-4.267s4.267,1.707,4.267,4.267c0,69.973-67.413,104.96-70.827,105.813c-0.853,0-0.853,0.853-1.707,0.853
	c-6.827,0-12.8,5.973-12.8,12.8v34.133c0,6.827,5.973,12.8,12.8,12.8c1.707,0,3.413,1.707,4.267,3.413
	c0,0.853,17.067,75.947,33.28,100.693c11.093,16.213,33.28,49.493,90.453,49.493s79.36-33.28,90.453-49.493
	c16.213-24.747,33.28-99.84,33.28-100.693c0.853-1.707,2.56-3.413,4.267-3.413c6.827,0,12.8-5.973,12.8-12.8v-34.133
	c0-6.827-5.973-12.8-12.8-12.8c-2.56,0-4.267-1.707-4.267-4.267v-51.2c0-4.267-1.707-98.133-123.733-98.133
	c-139.093,0-140.8,110.08-140.8,115.2c0,2.56-1.707,4.267-4.267,4.267l0,0c-2.56,0-4.267-1.707-4.267-4.267
	C102.4,122.88,104.107,0,251.733,0C382.293,0,384,105.813,384,106.667v47.787c9.387,1.707,17.067,10.24,17.067,20.48v34.133
	c0,10.24-7.68,19.627-17.92,21.333c-3.413,14.507-18.773,77.653-34.133,100.693C338.773,346.453,314.027,384,251.733,384z
	 M260.267,332.8H243.2c-2.56,0-4.267-1.707-4.267-4.267c0-2.56,1.707-4.267,4.267-4.267h17.067c2.56,0,4.267,1.707,4.267,4.267
	C264.533,331.093,262.827,332.8,260.267,332.8z M285.867,307.2c-0.853,0-17.067,0-34.133-7.68c-17.067,7.68-33.28,7.68-34.133,7.68
	c-2.56,0-4.267-1.707-4.267-4.267s1.707-4.267,4.267-4.267c0,0,16.213,0,32.427-7.68c0.853-0.853,2.56-0.853,3.413,0
	c16.213,7.68,32.427,7.68,32.427,7.68c2.56,0,4.267,1.707,4.267,4.267S288.427,307.2,285.867,307.2z M302.933,230.4h-17.067
	c-16.213,0-29.867-13.653-29.867-29.867V192c0-11.947,9.387-21.333,21.333-21.333h34.133c11.947,0,21.333,9.387,21.333,21.333
	l27.307-20.48c1.707-1.707,4.267-0.853,5.973,0.853c0.853,0.853,0.853,1.707,0.853,2.56c0,1.707-0.853,2.56-1.707,3.413
	L332.8,203.093C331.947,218.453,318.293,230.4,302.933,230.4z M277.333,179.2c-6.827,0-12.8,5.973-12.8,12.8v8.533
	c0,11.947,9.387,21.333,21.333,21.333h17.067c11.947,0,21.333-9.387,21.333-21.333l0,0l0,0V192c0-6.827-5.973-12.8-12.8-12.8
	H277.333z M217.6,230.4h-17.067c-15.36,0-29.013-11.947-29.867-27.307l-32.427-24.747c-0.853-0.853-1.707-1.707-1.707-3.413
	c0-0.853,0-1.707,0.853-2.56c1.707-1.707,4.267-2.56,5.973-0.853L170.667,192c0-11.947,9.387-21.333,21.333-21.333h34.133
	c11.947,0,21.333,9.387,21.333,21.333v8.533C247.467,216.747,233.813,230.4,217.6,230.4z M179.2,200.533
	c0,11.947,9.387,21.333,21.333,21.333H217.6c11.947,0,21.333-9.387,21.333-21.333V192c0-6.827-5.973-12.8-12.8-12.8H192
	c-6.827,0-12.8,5.973-12.8,12.8V200.533L179.2,200.533L179.2,200.533z M354.133,128c-0.853,0-64-0.853-64-72.533
	c0-2.56,1.707-4.267,4.267-4.267s4.267,1.707,4.267,4.267c0,63.147,52.907,64,55.467,64s4.267,1.707,4.267,4.267
	C358.4,126.293,356.693,128,354.133,128z"/>
<g>
</g>
<g>
</g>
<g>
</g>
<g>
</g>
<g>
</g>
<g>
</g>
<g>
</g>
<g>
</g>
<g>
</g>
<g>
</g>
<g>
</g>
<g>
</g>
<g>
</g>
<g>
</g>
<g>
</g>
</svg>
